<svg width="128" height="128" viewBox="0 0 128 128" fill="none" xmlns="http://www.w3.org/2000/svg">
<path d="M15.412 95C15.412 94.616 15.46 94.316 15.556 94.1C15.676 93.884 15.82 93.752 15.988 93.704L18.4 93.056L17.86 93.632V73.328L18.436 73.94L15.412 73.256C15.412 72.92 15.46 72.656 15.556 72.464C15.652 72.272 15.832 72.092 16.096 71.924H23.476C23.476 72.308 23.428 72.608 23.332 72.824C23.236 73.04 23.092 73.172 22.9 73.22L20.344 73.868L20.812 73.256V93.272L20.452 92.876L30.244 93.524L29.776 93.992L30.532 89.672C30.868 89.672 31.156 89.72 31.396 89.816C31.636 89.912 31.84 90.056 32.008 90.248V95H15.412ZM41.8866 95.432C39.6546 95.432 37.8906 94.736 36.5946 93.344C35.2986 91.952 34.6506 90.092 34.6506 87.764C34.6506 85.964 35.0226 84.356 35.7666 82.94C36.5346 81.524 37.5786 80.408 38.8986 79.592C40.2186 78.776 41.7306 78.368 43.4346 78.368C44.9226 78.368 46.2066 78.692 47.2866 79.34C48.3666 79.964 49.2066 80.852 49.8066 82.004C50.4066 83.156 50.7066 84.512 50.7066 86.072C50.7066 87.896 50.3346 89.516 49.5906 90.932C48.8466 92.324 47.8026 93.428 46.4586 94.244C45.1386 95.036 43.6146 95.432 41.8866 95.432ZM42.5706 94.208C44.1786 94.208 45.4146 93.56 46.2786 92.264C47.1666 90.968 47.6106 89.156 47.6106 86.828C47.6106 84.5 47.2026 82.712 46.3866 81.464C45.5706 80.216 44.3826 79.592 42.8226 79.592C41.2146 79.592 39.9666 80.24 39.0786 81.536C38.1906 82.808 37.7466 84.632 37.7466 87.008C37.7466 89.336 38.1546 91.124 38.9706 92.372C39.8106 93.596 41.0106 94.208 42.5706 94.208ZM53.7883 95C53.7883 94.28 53.9803 93.848 54.3643 93.704L56.4163 93.02L56.0203 93.632V80.276L56.4523 80.816L54.3283 80.42C54.1603 80.372 54.0283 80.252 53.9323 80.06C53.8363 79.844 53.7883 79.544 53.7883 79.16C54.7243 79.016 55.4203 78.92 55.8763 78.872C56.3323 78.8 56.7163 78.764 57.0283 78.764C57.6043 78.764 58.0363 78.932 58.3243 79.268C58.6123 79.58 58.7563 80.108 58.7563 80.852V82.364L58.5403 82.148H58.9003C59.5483 81.02 60.3403 80.108 61.2763 79.412C62.2363 78.716 63.1483 78.368 64.0123 78.368C64.9243 78.368 65.5723 78.572 65.9563 78.98C66.3403 79.364 66.5323 79.856 66.5323 80.456C66.5323 80.912 66.3883 81.308 66.1003 81.644C65.8363 81.98 65.4883 82.148 65.0563 82.148C64.7203 81.524 64.3723 81.104 64.0123 80.888C63.6523 80.672 63.2563 80.564 62.8243 80.564C62.1523 80.564 61.4443 80.864 60.7003 81.464C59.9563 82.064 59.2843 82.784 58.6843 83.624L58.9363 82.94V93.596L58.4323 92.948L61.5643 93.632C61.5643 93.992 61.5163 94.268 61.4203 94.46C61.3483 94.652 61.1803 94.832 60.9163 95H53.7883ZM74.8289 95.432C73.3649 95.432 72.0809 95.108 70.9769 94.46C69.8969 93.788 69.0569 92.864 68.4569 91.688C67.8569 90.512 67.5569 89.156 67.5569 87.62C67.5569 85.868 67.9169 84.296 68.6369 82.904C69.3809 81.512 70.3649 80.408 71.5889 79.592C72.8129 78.776 74.1449 78.368 75.5849 78.368C76.8329 78.368 77.9129 78.656 78.8249 79.232C79.7609 79.784 80.4929 80.564 81.0209 81.572C81.5489 82.58 81.8129 83.744 81.8129 85.064C81.8129 85.52 81.7289 85.832 81.5609 86C81.3929 86.144 81.2009 86.216 80.9849 86.216H69.6449V85.1L79.4369 84.848L79.0409 85.244C79.0889 84.092 78.9449 83.096 78.6089 82.256C78.2969 81.416 77.8409 80.768 77.2409 80.312C76.6649 79.832 75.9809 79.592 75.1889 79.592C73.8689 79.592 72.7889 80.204 71.9489 81.428C71.1089 82.652 70.6889 84.38 70.6889 86.612C70.6889 88.052 70.8929 89.312 71.3009 90.392C71.7329 91.448 72.3569 92.276 73.1729 92.876C73.9889 93.476 74.9729 93.776 76.1249 93.776C77.0849 93.776 78.0089 93.536 78.8969 93.056C79.7849 92.552 80.5769 91.856 81.2729 90.968L81.7409 91.868C81.2369 92.588 80.6129 93.224 79.8689 93.776C79.1249 94.304 78.3209 94.712 77.4569 95C76.6169 95.288 75.7409 95.432 74.8289 95.432ZM84.9367 95C84.9367 94.232 85.1287 93.8 85.5127 93.704L87.5647 93.02L87.1687 93.524V80.276L87.6007 80.816L85.4767 80.42C85.1167 80.348 84.9367 79.928 84.9367 79.16C85.8487 79.016 86.5327 78.92 86.9887 78.872C87.4687 78.8 87.8647 78.764 88.1767 78.764C88.8007 78.764 89.2447 78.92 89.5087 79.232C89.7727 79.544 89.9047 80.048 89.9047 80.744V82.076L89.7607 81.968H90.0847C90.9967 80.864 92.0527 79.988 93.2527 79.34C94.4767 78.692 95.6407 78.368 96.7447 78.368C98.0887 78.368 99.0847 78.848 99.7327 79.808C100.381 80.768 100.705 82.22 100.705 84.164V93.596L100.273 93.092L102.721 93.668C102.721 94.028 102.673 94.304 102.577 94.496C102.505 94.664 102.349 94.832 102.109 95H95.8087C95.8087 94.232 96.0007 93.8 96.3847 93.704L98.1847 93.164L97.7887 93.668V84.236C97.7887 81.692 96.8887 80.42 95.0887 80.42C94.4167 80.42 93.7447 80.564 93.0727 80.852C92.4007 81.116 91.7767 81.488 91.2007 81.968C90.6487 82.424 90.1807 82.928 89.7967 83.48L90.0847 82.796V93.596L89.6527 93.092L92.1007 93.668C92.1007 94.028 92.0527 94.304 91.9567 94.496C91.8847 94.664 91.7167 94.832 91.4527 95H84.9367ZM106.429 95C106.429 94.232 106.621 93.8 107.005 93.704L108.805 93.164L108.409 93.668V84.236C108.409 81.692 107.509 80.42 105.709 80.42C104.725 80.42 103.753 80.72 102.793 81.32C101.857 81.896 101.089 82.604 100.489 83.444L100.093 81.968H100.633C101.569 80.864 102.637 79.988 103.837 79.34C105.061 78.692 106.225 78.368 107.329 78.368C108.697 78.368 109.705 78.848 110.353 79.808C111.001 80.768 111.325 82.22 111.325 84.164V93.452L110.893 92.984L113.557 93.668C113.557 94.028 113.509 94.304 113.413 94.496C113.341 94.664 113.185 94.832 112.945 95H106.429Z" fill="black"/>
<path d="M55.616 56.064C53.3973 56.064 51.4133 55.5947 49.664 54.656C47.9573 53.6747 46.592 52.352 45.568 50.688C44.5867 49.024 44.096 47.1467 44.096 45.056C44.096 41.7707 44.992 39.2107 46.784 37.376C48.6187 35.5413 50.88 34.624 53.568 34.624C55.4453 34.624 57.0667 35.0293 58.432 35.84C59.84 36.6507 61.0133 37.6107 61.952 38.72C62.8907 39.7867 63.5947 40.704 64.064 41.472L63.104 41.92C64.0427 39.616 65.344 37.8453 67.008 36.608C68.7147 35.328 70.7413 34.6667 73.088 34.624C75.1787 34.624 77.0347 35.1147 78.656 36.096C80.2773 37.0347 81.5573 38.336 82.496 40C83.4347 41.6213 83.904 43.4987 83.904 45.632C83.904 49.0027 82.9867 51.584 81.152 53.376C79.3173 55.168 77.0773 56.064 74.432 56.064C72.512 56.064 70.848 55.6373 69.44 54.784C68.032 53.9307 66.88 52.9707 65.984 51.904C65.088 50.7947 64.4267 49.92 64 49.28L65.024 48.832C64.1707 51.0507 62.976 52.8 61.44 54.08C59.904 55.3173 57.9627 55.9787 55.616 56.064ZM53.952 53.248C55.4453 53.248 56.6827 52.8853 57.664 52.16C58.688 51.4347 59.584 50.2613 60.352 48.64C61.1627 47.0187 62.016 44.864 62.912 42.176L63.68 44.032C63.2533 43.3067 62.6987 42.56 62.016 41.792C61.376 41.024 60.6293 40.32 59.776 39.68C58.9653 39.04 58.0693 38.528 57.088 38.144C56.1067 37.7173 55.0613 37.504 53.952 37.504C51.6053 37.504 49.792 38.2293 48.512 39.68C47.232 41.088 46.592 42.9867 46.592 45.376C46.592 47.7227 47.2747 49.6213 48.64 51.072C50.048 52.5227 51.8187 53.248 53.952 53.248ZM74.048 53.184C76.4373 53.184 78.2507 52.4587 79.488 51.008C80.768 49.5573 81.408 47.6587 81.408 45.312C81.408 42.9227 80.7253 41.0027 79.36 39.552C77.9947 38.0587 76.2453 37.312 74.112 37.312C72.6613 37.312 71.424 37.6747 70.4 38.4C69.4187 39.0827 68.5227 40.256 67.712 41.92C66.9013 43.5413 66.0267 45.7813 65.088 48.64L64.32 46.848C65.3013 48.128 66.2827 49.2373 67.264 50.176C68.2453 51.1147 69.2693 51.8613 70.336 52.416C71.4453 52.928 72.6827 53.184 74.048 53.184Z" fill="black"/>
</svg>
